{"title":"THE PINK PANTHER[1963] IN H.264 BY KIDZCORNER","uid":5051257,"size":1050399376,"categoryP":"video","categoryS":"movies","magnet":"?xt=urn:btih:d6dd276084a15d7f87720c79b5d6b03a2819e942&amp;dn=THE+PINK+PANTHER%5B1963%5D+IN+H.264+BY+KIDZCORNER&amp;tr=udp%3A%2F%2Ftracker.openbittorrent.com%3A80&amp;tr=udp%3A%2F%2Fopen.demonii.com%3A1337&amp;tr=udp%3A%2F%2Ftracker.coppersurfer.tk%3A6969&amp;tr=udp%3A%2F%2Fexodus.desync.com%3A6969","seeders":0,"leechers":1,"uploader":"alanwatson","files":3,"time":1250184203,"description":"Arriving at a posh resort with her precious &quot;panther&quot; (a large gem with the image of a leaping feline inside) sexy Princess Dala meets the debonair Sir Charles. She is unaware, however, that Charles, a.k.a. &quot;The Phantom,&quot; is a professional thief who steals from the rich and gives to...himself! Enter Jacques Clouseau, the clumsiest inspector ever to trip over a case. Can he stop Charles' attempts to relieve the princess of her diamond? Can he even exit a room without breaking off the doorknob? Or will The Phantom steal away the &quot;cat&quot; and leave Clouseau to hold the bag?\n\nFormat : MPEG-4\nFormat profile : Base Media / Version 2\nCodec ID : mp42\nFile size : 999 MiB\nDuration : 1h 50mn\nOverall bit rate : 1 266 Kbps\nEncoded date : UTC 2009-08-10 20:27:18\nTagged date : UTC 2009-08-11 00:31:49\nWriting application : HandBrake 0.9.3 2008112300\n\nVideo\nID : 1\nFormat : AVC\nFormat/Info : Advanced Video Codec\nFormat profile : &lt;a class=&quot;__cf_email__&quot; href=&quot;/cdn-cgi/l/email-protection&quot; data-cfemail=&quot;3a775b53547a760e140a&quot;&gt;[email&amp;#160;protected]&lt;/a&gt;&lt;script cf-hash='f9e31' type=&quot;text/javascript&quot;&gt;\n/* &lt;![CDATA[ */!function(){try{var t=&quot;currentScript&quot;in document?document.currentScript:function(){for(var t=document.getElementsByTagName(&quot;script&quot;),e=t.length;e--;)if(t[e].getAttribute(&quot;cf-hash&quot;))return t[e]}();if(t&amp;&amp;t.previousSibling){var e,r,n,i,c=t.previousSibling,a=c.getAttribute(&quot;data-cfemail&quot;);if(a){for(e=&quot;&quot;,r=parseInt(a.substr(0,2),16),n=2;a.length-n;n+=2)i=parseInt(a.substr(n,2),16)^r,e+=String.fromCharCode(i);e=document.createTextNode(e),c.parentNode.replaceChild(e,c)}}}catch(u){}}();/* ]]&gt; */&lt;/script&gt;\nFormat settings, CABAC : Yes\nFormat settings, ReFrames : 3 frames\nCodec ID : avc1\nCodec ID/Info : Advanced Video Coding\nDuration : 1h 50mn\nBit rate mode : Variable\nBit rate : 1 102 Kbps\nWidth : 716 pixels\nHeight : 434 pixels\nDisplay aspect ratio : 2.35\nFrame rate mode : Variable\nFrame rate : 25.000 fps\nMinimum frame rate : 12.500 fps\nMaximum frame rate : 25.000 fps\nResolution : 24 bits\nColorimetry : 4:2:0\nScan type : Progressive\nBits/(Pixel*Frame) : 0.142\nStream size : 870 MiB (87%)\nWriting library : x264 core 65\n\nAudio\nID : 2\nFormat : AAC\nFormat/Info : Advanced Audio Codec\nFormat version : Version 4\nFormat profile : LC\nFormat settings, SBR : No\nCodec ID : 40\nDuration : 1h 50mn\nBit rate mode : Variable\nBit rate : 160 Kbps\nMaximum bit rate : 233 Kbps\nChannel(s) : 2 channels\nChannel positions : L R\nSampling rate : 48.0 KHz\nResolution : 16 bits\nStream size : 126 MiB (13%)\nLanguage : English\nEncoded date : UTC 2009-08-10 20:27:18\nTagged date : UTC 2009-08-11 00:31:44\n","torrent":{"xt":"urn:btih:d6dd276084a15d7f87720c79b5d6b03a2819e942","amp;dn":"THE+PINK+PANTHER%5B1963%5D+IN+H.264+BY+KIDZCORNER","amp;tr":["udp%3A%2F%2Ftracker.openbittorrent.com%3A80","udp%3A%2F%2Fopen.demonii.com%3A1337","udp%3A%2F%2Ftracker.coppersurfer.tk%3A6969","udp%3A%2F%2Fexodus.desync.com%3A6969"],"infoHash":"d6dd276084a15d7f87720c79b5d6b03a2819e942","infoHashBuffer":{"type":"Buffer","data":[214,221,39,96,132,161,93,127,135,114,12,121,181,214,176,58,40,25,233,66]},"announce":[],"urlList":[]}}